<svg xmlns="http://www.w3.org/2000/svg" width="1200" height="700" viewBox="0 0 1200 700"><defs><linearGradient id="g" x1="0" x2="1"><stop stop-color="#e4f7ff"/><stop offset="1" stop-color="#fff4df"/></linearGradient></defs><rect width="1200" height="700" rx="36" fill="url(#g)"/><text x="600" y="90" text-anchor="middle" font-family="Arial" font-size="42" font-weight="700" fill="#17354d">Клімат місцевості = дія кількох чинників</text><g font-family="Arial" font-size="29" fill="#17354d"><rect x="70" y="160" width="310" height="140" rx="28" fill="#fff" stroke="#98d3ea" stroke-width="3"/><text x="225" y="215" text-anchor="middle" font-weight="700">Широта</text><text x="225" y="258" text-anchor="middle">сонячна енергія</text><rect x="445" y="160" width="310" height="140" rx="28" fill="#fff" stroke="#98d3ea" stroke-width="3"/><text x="600" y="215" text-anchor="middle" font-weight="700">Висота</text><text x="600" y="258" text-anchor="middle">температура ↓</text><rect x="820" y="160" width="310" height="140" rx="28" fill="#fff" stroke="#98d3ea" stroke-width="3"/><text x="975" y="215" text-anchor="middle" font-weight="700">Океан / суходіл</text><text x="975" y="258" text-anchor="middle">амплітуда t°</text><rect x="170" y="390" width="310" height="140" rx="28" fill="#fff" stroke="#9bd6be" stroke-width="3"/><text x="325" y="445" text-anchor="middle" font-weight="700">Течії</text><text x="325" y="488" text-anchor="middle">тепло й волога</text><rect x="720" y="390" width="310" height="140" rx="28" fill="#fff" stroke="#9bd6be" stroke-width="3"/><text x="875" y="445" text-anchor="middle" font-weight="700">Рельєф</text><text x="875" y="488" text-anchor="middle">бар’єри для повітря</text><circle cx="600" cy="460" r="110" fill="#1788cf"/><text x="600" y="450" text-anchor="middle" fill="#fff" font-size="34" font-weight="700">КЛІМАТ</text><text x="600" y="490" text-anchor="middle" fill="#fff" font-size="24">температура + опади</text></g><g stroke="#1788cf" stroke-width="5" fill="none"><path d="M380 245 C470 270 500 320 540 365"/><path d="M600 300 V350"/><path d="M820 245 C730 270 700 320 660 365"/><path d="M480 455 H490"/><path d="M710 455 H720"/></g></svg>