<svg xmlns="http://www.w3.org/2000/svg" viewBox="0 0 1200 560" role="img" aria-labelledby="t"><title id="t">Порівняльні кліматограми: Амазонія, Ліма, південне Чилі</title><rect width="1200" height="560" rx="28" fill="#ffffff"/><g font-family="system-ui,Segoe UI,sans-serif" fill="#17384d"><text x="600" y="42" text-anchor="middle" font-size="30" font-weight="900">Порівняйте не цифри, а РИТМ опадів</text></g><g transform="translate(60 85)"><text x="150" y="0" text-anchor="middle" font-family="system-ui" font-size="24" font-weight="800" fill="#17384d">Амазонія</text><line x1="0" y1="360" x2="300" y2="360" stroke="#9db5c3"/><g fill="#52a9d8"><rect x="8" y="80" width="16" height="280"/><rect x="32" y="92" width="16" height="268"/><rect x="56" y="105" width="16" height="255"/><rect x="80" y="125" width="16" height="235"/><rect x="104" y="150" width="16" height="210"/><rect x="128" y="180" width="16" height="180"/><rect x="152" y="190" width="16" height="170"/><rect x="176" y="178" width="16" height="182"/><rect x="200" y="150" width="16" height="210"/><rect x="224" y="120" width="16" height="240"/><rect x="248" y="95" width="16" height="265"/><rect x="272" y="82" width="16" height="278"/></g><path d="M8 130 Q70 115 130 125 T288 120" fill="none" stroke="#e36a54" stroke-width="6"/><text x="150" y="405" text-anchor="middle" font-family="system-ui" font-size="18" fill="#60798a">високі опади майже весь рік</text></g><g transform="translate(450 85)"><text x="150" y="0" text-anchor="middle" font-family="system-ui" font-size="24" font-weight="800" fill="#17384d">Ліма / узбережжя Перу</text><line x1="0" y1="360" x2="300" y2="360" stroke="#9db5c3"/><g fill="#52a9d8"><rect x="8" y="345" width="16" height="15"/><rect x="32" y="350" width="16" height="10"/><rect x="56" y="348" width="16" height="12"/><rect x="80" y="350" width="16" height="10"/><rect x="104" y="346" width="16" height="14"/><rect x="128" y="344" width="16" height="16"/><rect x="152" y="346" width="16" height="14"/><rect x="176" y="347" width="16" height="13"/><rect x="200" y="349" width="16" height="11"/><rect x="224" y="350" width="16" height="10"/><rect x="248" y="349" width="16" height="11"/><rect x="272" y="347" width="16" height="13"/></g><path d="M8 170 Q80 200 150 220 T288 175" fill="none" stroke="#e36a54" stroke-width="6"/><text x="150" y="405" text-anchor="middle" font-family="system-ui" font-size="18" fill="#60798a">майже без дощів</text></g><g transform="translate(840 85)"><text x="150" y="0" text-anchor="middle" font-family="system-ui" font-size="24" font-weight="800" fill="#17384d">Південне Чилі</text><line x1="0" y1="360" x2="300" y2="360" stroke="#9db5c3"/><g fill="#52a9d8"><rect x="8" y="215" width="16" height="145"/><rect x="32" y="205" width="16" height="155"/><rect x="56" y="190" width="16" height="170"/><rect x="80" y="160" width="16" height="200"/><rect x="104" y="125" width="16" height="235"/><rect x="128" y="95" width="16" height="265"/><rect x="152" y="80" width="16" height="280"/><rect x="176" y="100" width="16" height="260"/><rect x="200" y="125" width="16" height="235"/><rect x="224" y="155" width="16" height="205"/><rect x="248" y="185" width="16" height="175"/><rect x="272" y="205" width="16" height="155"/></g><path d="M8 210 Q80 250 150 285 T288 220" fill="none" stroke="#e36a54" stroke-width="6"/><text x="150" y="405" text-anchor="middle" font-family="system-ui" font-size="18" fill="#60798a">зимовий максимум опадів</text></g><g font-family="system-ui" font-size="18"><rect x="440" y="515" width="22" height="14" fill="#52a9d8"/><text x="470" y="528" fill="#60798a">опади</text><line x1="565" y1="522" x2="602" y2="522" stroke="#e36a54" stroke-width="6"/><text x="615" y="528" fill="#60798a">температура</text></g></svg>