<svg xmlns="http://www.w3.org/2000/svg" viewBox="0 0 1000 620"><defs><linearGradient id="bg" x1="0" x2="1"><stop stop-color="#e8f8ff"/><stop offset="1" stop-color="#fff7d9"/></linearGradient></defs><rect width="1000" height="620" rx="34" fill="url(#bg)"/><text x="55" y="72" font-family="Arial,sans-serif" font-size="36" font-weight="700" fill="#17445d">Польовий протокол водойми</text><path d="M0 390 Q170 330 340 390 T690 380 T1000 370 V620 H0Z" fill="#74cfe6"/><path d="M0 430 Q180 390 350 430 T700 420 T1000 410" fill="none" stroke="#e8fbff" stroke-width="12" opacity=".75"/><g font-family="Arial,sans-serif"><g transform="translate(75 130)"><circle cx="75" cy="75" r="62" fill="#fff" stroke="#2d9ab5" stroke-width="5"/><path d="M50 70 q25-35 50 0 q-25 34-50 0" fill="none" stroke="#17445d" stroke-width="8"/><circle cx="75" cy="69" r="8" fill="#17445d"/><text x="0" y="175" font-size="25" font-weight="700" fill="#17445d">1. СПОСТЕРІГАЙ</text><text x="0" y="207" font-size="19" fill="#557488">колір, запах, сміття, береги</text></g><g transform="translate(365 130)"><circle cx="75" cy="75" r="62" fill="#fff" stroke="#46aa7b" stroke-width="5"/><path d="M45 45 h60 v60 h-60z" fill="none" stroke="#17445d" stroke-width="7"/><path d="M45 68 h60M68 45v60" stroke="#17445d" stroke-width="5"/><text x="0" y="175" font-size="25" font-weight="700" fill="#17445d">2. КАРТУЙ</text><text x="0" y="207" font-size="19" fill="#557488">притоки, поля, дороги, забудова</text></g><g transform="translate(655 130)"><circle cx="75" cy="75" r="62" fill="#fff" stroke="#efb34c" stroke-width="5"/><path d="M55 40 v90M95 40v90M55 95h40" stroke="#17445d" stroke-width="8"/><circle cx="75" cy="110" r="25" fill="#8bd9e9"/><text x="0" y="175" font-size="25" font-weight="700" fill="#17445d">3. ВИМІРЮЙ</text><text x="0" y="207" font-size="19" fill="#557488">температура, pH, прозорість…</text></g></g><rect x="80" y="480" width="840" height="90" rx="22" fill="#fff" opacity=".94"/><text x="110" y="522" font-family="Arial,sans-serif" font-size="25" font-weight="700" fill="#11866d">Ознака ≠ причина.</text><text x="110" y="555" font-family="Arial,sans-serif" font-size="22" fill="#3e6578">Формулюйте гіпотезу, а потім шукайте незалежні докази.</text></svg>